<?xml version="1.0" standalone="no"?>
<!DOCTYPE svg PUBLIC "-//W3C//DTD SVG 20010904//EN"
 "http://www.w3.org/TR/2001/REC-SVG-20010904/DTD/svg10.dtd">
<svg version="1.0" xmlns="http://www.w3.org/2000/svg"
 width="1113.000000pt" height="1280.000000pt" viewBox="0 0 1113.000000 1280.000000"
 preserveAspectRatio="xMidYMid meet">
<g transform="translate(0.000000,1280.000000) scale(0.100000,-0.100000)"
fill="#000000" stroke="none">
<path d="M3216 12780 c-283 -48 -481 -151 -671 -351 -138 -145 -232 -309 -282
-494 -25 -93 -27 -114 -27 -300 0 -186 2 -207 27 -300 55 -202 169 -389 329
-541 179 -169 371 -264 605 -299 379 -57 738 60 1002 326 248 251 357 554 329
920 -21 279 -133 514 -341 721 -188 185 -379 276 -673 322 -124 20 -160 19
-298 -4z"/>
<path d="M3498 10151 c-417 -32 -760 -59 -762 -62 -2 -2 11 -204 29 -449 19
-245 59 -782 90 -1195 86 -1159 161 -2168 197 -2637 l32 -428 2081 0 c1649 0
2085 -3 2098 -12 9 -7 407 -908 883 -2003 476 -1094 868 -1993 872 -1997 9 -8
2085 897 2090 911 5 15 -300 712 -313 717 -5 2 -262 -106 -570 -240 -433 -189
-563 -242 -572 -233 -7 7 -391 883 -853 1947 -463 1064 -847 1938 -853 1942
-7 4 -767 8 -1690 8 -1333 0 -1679 3 -1682 13 -8 23 -56 718 -50 727 4 6 432
10 1161 10 733 0 1154 4 1154 10 0 13 -430 1002 -443 1018 -7 9 -215 12 -978
12 -670 0 -970 3 -974 11 -4 5 -40 454 -80 997 -41 543 -74 988 -74 990 -1 3
90 9 -793 -57z"/>
<path d="M2300 7939 c-424 -222 -759 -474 -1110 -835 -677 -695 -1058 -1498
-1154 -2434 -46 -444 -44 -603 10 -1045 84 -690 343 -1335 757 -1890 203 -271
545 -625 802 -831 591 -472 1228 -748 1965 -854 277 -39 612 -56 807 -41 698
55 1123 159 1618 395 826 394 1578 1145 1985 1984 33 67 60 130 60 139 0 13
-672 1570 -738 1711 -22 45 -36 40 -29 -9 8 -61 -9 -377 -28 -504 -104 -711
-417 -1295 -970 -1814 -573 -536 -1280 -811 -2090 -811 -460 0 -880 87 -1276
265 -665 299 -1273 915 -1563 1586 -172 398 -246 768 -246 1239 0 379 46 675
155 1003 200 604 635 1166 1213 1571 l83 58 -6 62 c-3 33 -21 273 -40 531 -43
584 -44 595 -58 595 -7 0 -73 -32 -147 -71z"/>
</g>
</svg>
